<svg width="49" height="47" viewBox="0 0 49 47" fill="none" xmlns="http://www.w3.org/2000/svg">
<path d="M33.5 40C33.5 40.2454 33.3727 40.6588 32.7475 41.2131C32.1241 41.7658 31.1363 42.3322 29.787 42.8381C27.0995 43.846 23.286 44.5 19 44.5C14.714 44.5 10.9005 43.846 8.21298 42.8381C6.86367 42.3322 5.87593 41.7658 5.25247 41.2131C4.62726 40.6588 4.5 40.2454 4.5 40C4.5 39.7546 4.62726 39.3412 5.25247 38.7869C5.87593 38.2342 6.86367 37.6678 8.21298 37.1619C10.9005 36.154 14.714 35.5 19 35.5C23.286 35.5 27.0995 36.154 29.787 37.1619C31.1363 37.6678 32.1241 38.2342 32.7475 38.7869C33.3727 39.3412 33.5 39.7546 33.5 40Z" stroke="#152C5B" stroke-width="3"/>
<path d="M29.5 15.4138C29.5 18.583 28.1677 24.7802 25.9502 30.2108C24.8464 32.9138 23.5645 35.3222 22.1958 37.0273C20.7871 38.7822 19.5286 39.5 18.5 39.5C17.4714 39.5 16.2129 38.7822 14.8042 37.0273C13.4355 35.3222 12.1536 32.9138 11.0498 30.2108C8.83226 24.7802 7.5 18.583 7.5 15.4138C7.5 9.39604 12.4151 4.5 18.5 4.5C24.5849 4.5 29.5 9.39604 29.5 15.4138Z" fill="white" stroke="#152C5B" stroke-width="3"/>
<circle cx="18" cy="17" r="3.5" stroke="#F21565" stroke-width="3"/>
</svg>
