<svg width="49" height="47" viewBox="0 0 49 47" fill="none" xmlns="http://www.w3.org/2000/svg">
<mask id="path-1-inside-1" fill="white">
<path fill-rule="evenodd" clip-rule="evenodd" d="M19.4219 5C18.5706 5 17.8126 5.5389 17.5329 6.34296L15.5652 12H8C3.58172 12 0 15.5817 0 20V34C0 38.4183 3.58172 42 8 42H41C45.4183 42 49 38.4183 49 34V20C49 15.5817 45.4183 12 41 12H32.8261L31.39 6.49516C31.1603 5.6145 30.3649 5 29.4548 5H19.4219Z"/>
</mask>
<path d="M17.5329 6.34296L14.6994 5.35739L14.6994 5.3574L17.5329 6.34296ZM15.5652 12V15H17.698L18.3987 12.9856L15.5652 12ZM32.8261 12L29.9232 12.7573L30.5083 15H32.8261V12ZM31.39 6.49516L34.2929 5.73789V5.73789L31.39 6.49516ZM20.3664 7.32853C20.2265 7.73055 19.8475 8 19.4219 8V2C17.2936 2 15.3986 3.34725 14.6994 5.35739L20.3664 7.32853ZM18.3987 12.9856L20.3664 7.32852L14.6994 5.3574L12.7317 11.0144L18.3987 12.9856ZM8 15H15.5652V9H8V15ZM3 20C3 17.2386 5.23858 15 8 15V9C1.92487 9 -3 13.9249 -3 20H3ZM3 34V20H-3V34H3ZM8 39C5.23858 39 3 36.7614 3 34H-3C-3 40.0751 1.92487 45 8 45V39ZM41 39H8V45H41V39ZM46 34C46 36.7614 43.7614 39 41 39V45C47.0751 45 52 40.0751 52 34H46ZM46 20V34H52V20H46ZM41 15C43.7614 15 46 17.2386 46 20H52C52 13.9249 47.0751 9 41 9V15ZM32.8261 15H41V9H32.8261V15ZM28.4872 7.25242L29.9232 12.7573L35.7289 11.2427L34.2929 5.73789L28.4872 7.25242ZM29.4548 8C28.9997 8 28.6021 7.69275 28.4872 7.25242L34.2929 5.73789C33.7185 3.53624 31.7301 2 29.4548 2V8ZM19.4219 8H29.4548V2H19.4219V8Z" fill="#152C5B" mask="url(#path-1-inside-1)"/>
<circle cx="24" cy="26" r="6.5" stroke="#FF498B" stroke-width="3"/>
<path d="M41.9943 18L33 18.3196" stroke="#152C5B" stroke-width="3" stroke-linecap="round"/>
</svg>
